<svg xmlns="http://www.w3.org/2000/svg" width="38.929" height="35.677" viewBox="0 0 38.929 35.677">
  <g id="Group_4934" data-name="Group 4934" transform="translate(0 0)">
    <path id="Path_4135" data-name="Path 4135" d="M26.9,53.2a4.349,4.349,0,1,1,4.348-4.349A4.354,4.354,0,0,1,26.9,53.2m0-6.437a2.089,2.089,0,1,0,2.088,2.088A2.091,2.091,0,0,0,26.9,46.765" transform="translate(-10.281 -17.525)" fill="white"/>
    <path id="Path_4136" data-name="Path 4136" d="M42.705,53.2a4.349,4.349,0,1,1,4.349-4.349A4.353,4.353,0,0,1,42.705,53.2m0-6.437a2.089,2.089,0,1,0,2.089,2.088,2.091,2.091,0,0,0-2.089-2.088" transform="translate(-14.18 -17.525)" fill="white"/>
    <path id="Path_4137" data-name="Path 4137" d="M9.5,7.984a1.131,1.131,0,0,0-.153.01L7.891,3.277.079.024C.053.013.027.009,0,0V2.478l6.015,2.5,6.493,21.061h20.83l5.592-18.06ZM31.645,23.748H14.2L10.049,10.279H35.816Z" transform="translate(0 0)" fill="white"/>
  </g>
</svg>
